<mxfile host="app.diagrams.net" modified="2023-09-12T15:53:55.970Z" agent="Mozilla/5.0 (Windows NT 10.0; Win64; x64) AppleWebKit/537.36 (KHTML, like Gecko) Chrome/115.0.0.0 Safari/537.36 OPR/101.0.0.0" etag="9e3uRH6TxlfaqcN0ctDL" version="21.7.4" type="device">
  <diagram name="Page-1" id="16e2658f-23c8-b752-8be9-c03fbebb8bbe">
    <mxGraphModel dx="1161" dy="664" grid="1" gridSize="10" guides="1" tooltips="1" connect="1" arrows="1" fold="1" page="1" pageScale="1" pageWidth="1100" pageHeight="850" background="none" math="0" shadow="0">
      <root>
        <mxCell id="0" />
        <mxCell id="1" parent="0" />
        <mxCell id="vBubRpKqPmv8FWI-1EZi-72" value="" style="rounded=0;whiteSpace=wrap;html=1;fillColor=#fff2cc;strokeColor=#d6b656;" parent="1" vertex="1">
          <mxGeometry x="250" y="120" width="340" height="310" as="geometry" />
        </mxCell>
        <mxCell id="vBubRpKqPmv8FWI-1EZi-27" value="" style="endArrow=classic;html=1;rounded=0;" parent="1" source="vBubRpKqPmv8FWI-1EZi-22" target="vBubRpKqPmv8FWI-1EZi-24" edge="1">
          <mxGeometry width="50" height="50" relative="1" as="geometry">
            <mxPoint x="230" y="350" as="sourcePoint" />
            <mxPoint x="280" y="300" as="targetPoint" />
          </mxGeometry>
        </mxCell>
        <mxCell id="vBubRpKqPmv8FWI-1EZi-29" value="" style="endArrow=open;html=1;rounded=0;dashed=1;endFill=0;startArrow=oval;startFill=1;" parent="1" target="vBubRpKqPmv8FWI-1EZi-24" edge="1">
          <mxGeometry width="50" height="50" relative="1" as="geometry">
            <mxPoint x="430" y="170" as="sourcePoint" />
            <mxPoint x="290" y="190" as="targetPoint" />
            <Array as="points">
              <mxPoint x="430" y="220" />
            </Array>
          </mxGeometry>
        </mxCell>
        <mxCell id="vBubRpKqPmv8FWI-1EZi-37" value="" style="group" parent="1" vertex="1" connectable="0">
          <mxGeometry x="350" y="250" width="40" height="120" as="geometry" />
        </mxCell>
        <mxCell id="vBubRpKqPmv8FWI-1EZi-22" value="" style="rounded=0;whiteSpace=wrap;html=1;fillColor=#f8cecc;strokeColor=#b85450;" parent="vBubRpKqPmv8FWI-1EZi-37" vertex="1">
          <mxGeometry width="40" height="120" as="geometry" />
        </mxCell>
        <mxCell id="vBubRpKqPmv8FWI-1EZi-23" value="&lt;div&gt;Datenspeicher&lt;/div&gt;" style="text;html=1;strokeColor=none;fillColor=none;align=center;verticalAlign=middle;whiteSpace=wrap;rounded=0;rotation=-90;" parent="vBubRpKqPmv8FWI-1EZi-37" vertex="1">
          <mxGeometry x="-10" y="45" width="60" height="30" as="geometry" />
        </mxCell>
        <mxCell id="vBubRpKqPmv8FWI-1EZi-38" value="" style="group" parent="1" vertex="1" connectable="0">
          <mxGeometry x="410" y="250" width="40" height="120" as="geometry" />
        </mxCell>
        <mxCell id="vBubRpKqPmv8FWI-1EZi-24" value="" style="shape=trapezoid;perimeter=trapezoidPerimeter;whiteSpace=wrap;html=1;fixedSize=1;rotation=90;fillColor=#dae8fc;strokeColor=#6c8ebf;" parent="vBubRpKqPmv8FWI-1EZi-38" vertex="1">
          <mxGeometry x="-40" y="40" width="120" height="40" as="geometry" />
        </mxCell>
        <mxCell id="vBubRpKqPmv8FWI-1EZi-28" value="&lt;div&gt;Ausgabe-Selektor&lt;/div&gt;" style="text;html=1;strokeColor=none;fillColor=none;align=center;verticalAlign=middle;whiteSpace=wrap;rounded=0;rotation=-90;" parent="vBubRpKqPmv8FWI-1EZi-38" vertex="1">
          <mxGeometry x="-10" y="45" width="60" height="30" as="geometry" />
        </mxCell>
        <mxCell id="vBubRpKqPmv8FWI-1EZi-39" value="" style="group;fillColor=#e1d5e7;strokeColor=#9673a6;" parent="1" vertex="1" connectable="0">
          <mxGeometry x="450" y="130" width="120" height="60" as="geometry" />
        </mxCell>
        <mxCell id="vBubRpKqPmv8FWI-1EZi-25" value="" style="rounded=0;whiteSpace=wrap;html=1;fillColor=#f8cecc;strokeColor=#b85450;" parent="vBubRpKqPmv8FWI-1EZi-39" vertex="1">
          <mxGeometry width="120" height="60" as="geometry" />
        </mxCell>
        <mxCell id="vBubRpKqPmv8FWI-1EZi-26" value="Zustandsautomat" style="text;html=1;strokeColor=none;fillColor=none;align=center;verticalAlign=middle;whiteSpace=wrap;rounded=0;" parent="vBubRpKqPmv8FWI-1EZi-39" vertex="1">
          <mxGeometry x="30" y="15" width="60" height="30" as="geometry" />
        </mxCell>
        <mxCell id="vBubRpKqPmv8FWI-1EZi-40" value="" style="group" parent="1" vertex="1" connectable="0">
          <mxGeometry x="290" y="250" width="40" height="120" as="geometry" />
        </mxCell>
        <mxCell id="vBubRpKqPmv8FWI-1EZi-41" value="" style="shape=trapezoid;perimeter=trapezoidPerimeter;whiteSpace=wrap;html=1;fixedSize=1;rotation=90;fillColor=#dae8fc;strokeColor=#6c8ebf;" parent="vBubRpKqPmv8FWI-1EZi-40" vertex="1">
          <mxGeometry x="-40" y="40" width="120" height="40" as="geometry" />
        </mxCell>
        <mxCell id="vBubRpKqPmv8FWI-1EZi-42" value="&lt;div&gt;Eingabe-&lt;/div&gt;&lt;div&gt;Selektor&lt;/div&gt;" style="text;html=1;strokeColor=none;fillColor=none;align=center;verticalAlign=middle;whiteSpace=wrap;rounded=0;rotation=-90;" parent="vBubRpKqPmv8FWI-1EZi-40" vertex="1">
          <mxGeometry x="-10" y="45" width="60" height="30" as="geometry" />
        </mxCell>
        <mxCell id="vBubRpKqPmv8FWI-1EZi-43" style="edgeStyle=orthogonalEdgeStyle;rounded=0;orthogonalLoop=1;jettySize=auto;html=1;exitX=0.5;exitY=0;exitDx=0;exitDy=0;entryX=0;entryY=0.5;entryDx=0;entryDy=0;" parent="1" source="vBubRpKqPmv8FWI-1EZi-41" target="vBubRpKqPmv8FWI-1EZi-22" edge="1">
          <mxGeometry relative="1" as="geometry" />
        </mxCell>
        <mxCell id="vBubRpKqPmv8FWI-1EZi-46" value="" style="group;fillColor=#f8cecc;strokeColor=#b85450;" parent="1" vertex="1" connectable="0">
          <mxGeometry x="520" y="210" width="40" height="80" as="geometry" />
        </mxCell>
        <mxCell id="vBubRpKqPmv8FWI-1EZi-44" value="" style="rounded=0;whiteSpace=wrap;html=1;fillColor=#f8cecc;strokeColor=#b85450;" parent="vBubRpKqPmv8FWI-1EZi-46" vertex="1">
          <mxGeometry width="40" height="80" as="geometry" />
        </mxCell>
        <mxCell id="vBubRpKqPmv8FWI-1EZi-45" value="&lt;div&gt;Gamma&lt;/div&gt;" style="text;html=1;strokeColor=none;fillColor=none;align=center;verticalAlign=middle;whiteSpace=wrap;rounded=0;rotation=-90;" parent="vBubRpKqPmv8FWI-1EZi-46" vertex="1">
          <mxGeometry x="-10" y="25" width="60" height="30" as="geometry" />
        </mxCell>
        <mxCell id="vBubRpKqPmv8FWI-1EZi-47" value="" style="group;" parent="1" vertex="1" connectable="0">
          <mxGeometry x="520" y="330" width="40" height="80" as="geometry" />
        </mxCell>
        <mxCell id="vBubRpKqPmv8FWI-1EZi-48" value="" style="rounded=0;whiteSpace=wrap;html=1;fillColor=#dae8fc;strokeColor=#6c8ebf;" parent="vBubRpKqPmv8FWI-1EZi-47" vertex="1">
          <mxGeometry width="40" height="80" as="geometry" />
        </mxCell>
        <mxCell id="vBubRpKqPmv8FWI-1EZi-49" value="&lt;div&gt;Rho&lt;/div&gt;" style="text;html=1;strokeColor=none;fillColor=none;align=center;verticalAlign=middle;whiteSpace=wrap;rounded=0;rotation=-90;" parent="vBubRpKqPmv8FWI-1EZi-47" vertex="1">
          <mxGeometry x="-10" y="25" width="60" height="30" as="geometry" />
        </mxCell>
        <mxCell id="vBubRpKqPmv8FWI-1EZi-50" style="edgeStyle=orthogonalEdgeStyle;rounded=0;orthogonalLoop=1;jettySize=auto;html=1;exitX=0.25;exitY=0;exitDx=0;exitDy=0;entryX=0;entryY=0.75;entryDx=0;entryDy=0;" parent="1" source="vBubRpKqPmv8FWI-1EZi-24" target="vBubRpKqPmv8FWI-1EZi-44" edge="1">
          <mxGeometry relative="1" as="geometry" />
        </mxCell>
        <mxCell id="vBubRpKqPmv8FWI-1EZi-51" style="edgeStyle=orthogonalEdgeStyle;rounded=0;orthogonalLoop=1;jettySize=auto;html=1;exitX=0.75;exitY=0;exitDx=0;exitDy=0;entryX=0;entryY=0.5;entryDx=0;entryDy=0;" parent="1" source="vBubRpKqPmv8FWI-1EZi-24" target="vBubRpKqPmv8FWI-1EZi-48" edge="1">
          <mxGeometry relative="1" as="geometry" />
        </mxCell>
        <mxCell id="vBubRpKqPmv8FWI-1EZi-55" style="edgeStyle=orthogonalEdgeStyle;rounded=0;orthogonalLoop=1;jettySize=auto;html=1;exitX=1;exitY=0.5;exitDx=0;exitDy=0;entryX=0.75;entryY=1;entryDx=0;entryDy=0;" parent="1" source="vBubRpKqPmv8FWI-1EZi-48" target="vBubRpKqPmv8FWI-1EZi-41" edge="1">
          <mxGeometry relative="1" as="geometry">
            <mxPoint x="260" y="450" as="targetPoint" />
            <Array as="points">
              <mxPoint x="570" y="370" />
              <mxPoint x="570" y="420" />
              <mxPoint x="270" y="420" />
              <mxPoint x="270" y="340" />
            </Array>
          </mxGeometry>
        </mxCell>
        <mxCell id="vBubRpKqPmv8FWI-1EZi-56" style="edgeStyle=orthogonalEdgeStyle;rounded=0;orthogonalLoop=1;jettySize=auto;html=1;exitX=1;exitY=0.25;exitDx=0;exitDy=0;entryX=0.25;entryY=1;entryDx=0;entryDy=0;" parent="1" source="vBubRpKqPmv8FWI-1EZi-44" target="vBubRpKqPmv8FWI-1EZi-41" edge="1">
          <mxGeometry relative="1" as="geometry">
            <Array as="points">
              <mxPoint x="570" y="230" />
              <mxPoint x="570" y="200" />
              <mxPoint x="270" y="200" />
              <mxPoint x="270" y="280" />
            </Array>
          </mxGeometry>
        </mxCell>
        <mxCell id="vBubRpKqPmv8FWI-1EZi-64" value="" style="endArrow=open;html=1;rounded=0;dashed=1;entryX=0.5;entryY=0;entryDx=0;entryDy=0;endFill=0;startArrow=oval;startFill=1;" parent="1" target="vBubRpKqPmv8FWI-1EZi-22" edge="1">
          <mxGeometry width="50" height="50" relative="1" as="geometry">
            <mxPoint x="370" y="170" as="sourcePoint" />
            <mxPoint x="540" y="120" as="targetPoint" />
          </mxGeometry>
        </mxCell>
        <mxCell id="vBubRpKqPmv8FWI-1EZi-68" value="" style="endArrow=classic;html=1;rounded=0;entryX=0;entryY=0.25;entryDx=0;entryDy=0;startArrow=none;startFill=0;" parent="1" target="vBubRpKqPmv8FWI-1EZi-44" edge="1">
          <mxGeometry width="50" height="50" relative="1" as="geometry">
            <mxPoint x="210" y="230" as="sourcePoint" />
            <mxPoint x="220" y="250" as="targetPoint" />
            <Array as="points">
              <mxPoint x="260" y="230" />
            </Array>
          </mxGeometry>
        </mxCell>
        <mxCell id="vBubRpKqPmv8FWI-1EZi-75" value="Eingabe" style="edgeLabel;html=1;align=center;verticalAlign=middle;resizable=0;points=[];labelBackgroundColor=none;" parent="vBubRpKqPmv8FWI-1EZi-68" vertex="1" connectable="0">
          <mxGeometry x="-0.9665" y="-1" relative="1" as="geometry">
            <mxPoint x="5" y="-11" as="offset" />
          </mxGeometry>
        </mxCell>
        <mxCell id="vBubRpKqPmv8FWI-1EZi-69" value="" style="endArrow=classic;html=1;rounded=0;" parent="1" edge="1">
          <mxGeometry width="50" height="50" relative="1" as="geometry">
            <mxPoint x="210" y="320" as="sourcePoint" />
            <mxPoint x="290" y="320" as="targetPoint" />
          </mxGeometry>
        </mxCell>
        <mxCell id="vBubRpKqPmv8FWI-1EZi-74" value="Ergebnis" style="edgeLabel;html=1;align=center;verticalAlign=middle;resizable=0;points=[];labelBackgroundColor=none;" parent="vBubRpKqPmv8FWI-1EZi-69" vertex="1" connectable="0">
          <mxGeometry x="-0.68" y="-1" relative="1" as="geometry">
            <mxPoint x="-3" y="-11" as="offset" />
          </mxGeometry>
        </mxCell>
        <mxCell id="vBubRpKqPmv8FWI-1EZi-70" value="" style="endArrow=classic;html=1;rounded=0;endFill=1;" parent="1" edge="1">
          <mxGeometry width="50" height="50" relative="1" as="geometry">
            <mxPoint x="210" y="150" as="sourcePoint" />
            <mxPoint x="450" y="150" as="targetPoint" />
          </mxGeometry>
        </mxCell>
        <mxCell id="vBubRpKqPmv8FWI-1EZi-73" value="Kontrolle" style="edgeLabel;html=1;align=center;verticalAlign=middle;resizable=0;points=[];labelBackgroundColor=none;" parent="vBubRpKqPmv8FWI-1EZi-70" vertex="1" connectable="0">
          <mxGeometry x="-0.9377" relative="1" as="geometry">
            <mxPoint x="2" y="-10" as="offset" />
          </mxGeometry>
        </mxCell>
        <mxCell id="vBubRpKqPmv8FWI-1EZi-76" value="" style="endArrow=classic;html=1;rounded=0;" parent="1" edge="1">
          <mxGeometry width="50" height="50" relative="1" as="geometry">
            <mxPoint x="450" y="310" as="sourcePoint" />
            <mxPoint x="630" y="310" as="targetPoint" />
          </mxGeometry>
        </mxCell>
        <mxCell id="vBubRpKqPmv8FWI-1EZi-78" value="Ausgabe" style="edgeLabel;html=1;align=center;verticalAlign=middle;resizable=0;points=[];labelBackgroundColor=none;" parent="vBubRpKqPmv8FWI-1EZi-76" vertex="1" connectable="0">
          <mxGeometry x="0.808" y="1" relative="1" as="geometry">
            <mxPoint x="7" y="-9" as="offset" />
          </mxGeometry>
        </mxCell>
        <mxCell id="vBubRpKqPmv8FWI-1EZi-77" value="" style="endArrow=classic;html=1;rounded=0;exitX=1;exitY=0.75;exitDx=0;exitDy=0;" parent="1" source="vBubRpKqPmv8FWI-1EZi-44" edge="1">
          <mxGeometry width="50" height="50" relative="1" as="geometry">
            <mxPoint x="650" y="260" as="sourcePoint" />
            <mxPoint x="630" y="270" as="targetPoint" />
          </mxGeometry>
        </mxCell>
        <mxCell id="vBubRpKqPmv8FWI-1EZi-79" value="Ergebnis" style="edgeLabel;html=1;align=center;verticalAlign=middle;resizable=0;points=[];labelBackgroundColor=none;" parent="vBubRpKqPmv8FWI-1EZi-77" vertex="1" connectable="0">
          <mxGeometry x="0.61" y="-1" relative="1" as="geometry">
            <mxPoint x="4" y="-11" as="offset" />
          </mxGeometry>
        </mxCell>
        <mxCell id="vBubRpKqPmv8FWI-1EZi-80" value="" style="endArrow=classic;html=1;rounded=0;startArrow=oval;startFill=1;" parent="1" edge="1">
          <mxGeometry width="50" height="50" relative="1" as="geometry">
            <mxPoint x="260" y="230" as="sourcePoint" />
            <mxPoint x="290" y="300" as="targetPoint" />
            <Array as="points">
              <mxPoint x="260" y="300" />
            </Array>
          </mxGeometry>
        </mxCell>
        <mxCell id="vBubRpKqPmv8FWI-1EZi-61" value="" style="endArrow=open;html=1;rounded=0;dashed=1;entryX=0;entryY=0.5;entryDx=0;entryDy=0;endFill=0;" parent="1" edge="1">
          <mxGeometry width="50" height="50" relative="1" as="geometry">
            <mxPoint x="450" y="170" as="sourcePoint" />
            <mxPoint x="310" y="260" as="targetPoint" />
            <Array as="points">
              <mxPoint x="310" y="170" />
            </Array>
          </mxGeometry>
        </mxCell>
        <mxCell id="v4HbRzlEs8X0XFVdXd1I-1" value="" style="endArrow=classic;html=1;rounded=0;exitX=1;exitY=0.75;exitDx=0;exitDy=0;" parent="1" edge="1">
          <mxGeometry width="50" height="50" relative="1" as="geometry">
            <mxPoint x="570" y="159.8" as="sourcePoint" />
            <mxPoint x="630" y="160" as="targetPoint" />
          </mxGeometry>
        </mxCell>
        <mxCell id="v4HbRzlEs8X0XFVdXd1I-2" value="Status" style="edgeLabel;html=1;align=center;verticalAlign=middle;resizable=0;points=[];labelBackgroundColor=none;" parent="v4HbRzlEs8X0XFVdXd1I-1" vertex="1" connectable="0">
          <mxGeometry x="0.61" y="-1" relative="1" as="geometry">
            <mxPoint x="-4" y="-11" as="offset" />
          </mxGeometry>
        </mxCell>
        <mxCell id="qJIccYhp9s4rsMdxG4CJ-12" value="" style="ellipse;whiteSpace=wrap;html=1;aspect=fixed;fillColor=#f8cecc;strokeColor=#b85450;" vertex="1" parent="1">
          <mxGeometry x="280" y="439.99999999999994" width="10" height="10" as="geometry" />
        </mxCell>
        <mxCell id="qJIccYhp9s4rsMdxG4CJ-13" value="Zustandsbehaftet" style="text;html=1;strokeColor=none;fillColor=none;align=left;verticalAlign=middle;whiteSpace=wrap;rounded=0;" vertex="1" parent="1">
          <mxGeometry x="290" y="439.99999999999994" width="130" height="10" as="geometry" />
        </mxCell>
        <mxCell id="qJIccYhp9s4rsMdxG4CJ-14" value="" style="ellipse;whiteSpace=wrap;html=1;aspect=fixed;fillColor=#dae8fc;strokeColor=#6c8ebf;" vertex="1" parent="1">
          <mxGeometry x="280" y="459.99999999999994" width="10" height="10" as="geometry" />
        </mxCell>
        <mxCell id="qJIccYhp9s4rsMdxG4CJ-15" value="Zustandslos" style="text;html=1;strokeColor=none;fillColor=none;align=left;verticalAlign=middle;whiteSpace=wrap;rounded=0;" vertex="1" parent="1">
          <mxGeometry x="290" y="459.99999999999994" width="130" height="10" as="geometry" />
        </mxCell>
        <mxCell id="qJIccYhp9s4rsMdxG4CJ-16" value="" style="endArrow=none;dashed=1;html=1;rounded=0;" edge="1" parent="1">
          <mxGeometry width="50" height="50" relative="1" as="geometry">
            <mxPoint x="420" y="444.75999999999993" as="sourcePoint" />
            <mxPoint x="450" y="444.75999999999993" as="targetPoint" />
          </mxGeometry>
        </mxCell>
        <mxCell id="qJIccYhp9s4rsMdxG4CJ-17" value="Kontrollsignal" style="text;html=1;strokeColor=none;fillColor=none;align=left;verticalAlign=middle;whiteSpace=wrap;rounded=0;" vertex="1" parent="1">
          <mxGeometry x="450" y="439.99999999999994" width="130" height="10" as="geometry" />
        </mxCell>
        <mxCell id="qJIccYhp9s4rsMdxG4CJ-18" value="" style="endArrow=none;html=1;rounded=0;" edge="1" parent="1">
          <mxGeometry width="50" height="50" relative="1" as="geometry">
            <mxPoint x="420" y="464.94" as="sourcePoint" />
            <mxPoint x="450" y="464.94" as="targetPoint" />
          </mxGeometry>
        </mxCell>
        <mxCell id="qJIccYhp9s4rsMdxG4CJ-19" value="Datensignal" style="text;html=1;strokeColor=none;fillColor=none;align=left;verticalAlign=middle;whiteSpace=wrap;rounded=0;" vertex="1" parent="1">
          <mxGeometry x="450" y="459.99999999999994" width="130" height="10" as="geometry" />
        </mxCell>
      </root>
    </mxGraphModel>
  </diagram>
</mxfile>
